<?xml version="1.0" encoding="UTF-8" standalone="no"?>
<!-- Generator: Adobe Illustrator 16.0.3, SVG Export Plug-In . SVG Version: 6.00 Build 0)  -->

<svg
   xmlns:dc="http://purl.org/dc/elements/1.1/"
   xmlns:cc="http://creativecommons.org/ns#"
   xmlns:rdf="http://www.w3.org/1999/02/22-rdf-syntax-ns#"
   xmlns:svg="http://www.w3.org/2000/svg"
   xmlns="http://www.w3.org/2000/svg"
   xmlns:sodipodi="http://sodipodi.sourceforge.net/DTD/sodipodi-0.dtd"
   xmlns:inkscape="http://www.inkscape.org/namespaces/inkscape"
   version="1.1"
   id="Layer_1"
   x="0px"
   y="0px"
   width="1378px"
   height="1378px"
   viewBox="0 0 1378 1378"
   enable-background="new 0 0 1378 1378"
   xml:space="preserve"
   sodipodi:docname="xraycube_inner_box.svg"
   inkscape:version="0.92.3 (2405546, 2018-03-11)"><metadata
   id="metadata31"><rdf:RDF><cc:Work
       rdf:about=""><dc:format>image/svg+xml</dc:format><dc:type
         rdf:resource="http://purl.org/dc/dcmitype/StillImage" /><dc:title></dc:title></cc:Work></rdf:RDF></metadata><defs
   id="defs29" /><sodipodi:namedview
   pagecolor="#ffffff"
   bordercolor="#666666"
   borderopacity="1"
   objecttolerance="10"
   gridtolerance="10"
   guidetolerance="10"
   inkscape:pageopacity="0"
   inkscape:pageshadow="2"
   inkscape:window-width="640"
   inkscape:window-height="480"
   id="namedview27"
   showgrid="false"
   inkscape:zoom="0.1712627"
   inkscape:cx="689"
   inkscape:cy="689"
   inkscape:window-x="0"
   inkscape:window-y="0"
   inkscape:window-maximized="0"
   inkscape:current-layer="Layer_1" />
<rect
   x="1068.935"
   y="498.656"
   fill="none"
   width="0.001"
   height="24.095"
   id="rect2" />
<rect
   x="1118.258"
   y="498.657"
   fill="none"
   width="0.001"
   height="24.094"
   id="rect4" />
<rect
   x="920.967"
   y="498.656"
   fill="none"
   width="0.001"
   height="24.095"
   id="rect6" />
<rect
   x="1019.613"
   y="498.656"
   fill="none"
   width="0.001"
   height="24.095"
   id="rect8" />
<rect
   x="970.291"
   y="498.657"
   fill="none"
   width="0.001"
   height="24.094"
   id="rect10" />
<rect
   x="1167.579"
   y="498.657"
   fill="none"
   width="0.001"
   height="24.094"
   id="rect12" />
<rect
   x="1266.224"
   y="498.656"
   fill="none"
   width="0.001"
   height="24.095"
   id="rect14" />
<rect
   x="1216.902"
   y="498.656"
   fill="none"
   width="0.001"
   height="24.095"
   id="rect16" />
<polygon
   fill="#D3D3D3"
   stroke="#000000"
   stroke-width="0.5"
   points="388.618,487.327 388.618,463.232 396.847,463.232   396.847,438.004 388.618,438.004 388.618,413.91 396.847,413.91 396.847,388.682 388.618,388.682 388.618,364.588 396.847,364.588   396.847,339.359 388.618,339.359 388.618,315.265 396.847,315.265 396.847,290.037 388.618,290.037 388.618,265.943   396.847,265.943 396.847,240.715 388.618,240.715 388.618,216.62 396.847,216.62 396.847,191.392 388.618,191.392 388.618,167.298   396.847,167.298 396.847,142.07 388.618,142.07 388.618,117.976 396.847,117.976 396.847,92.747 388.618,92.747 388.618,68.653   396.847,68.653 396.847,37.047 0,37.047 0,68.653 8.229,68.653 8.229,92.747 0,92.747 0,117.976 8.229,117.976 8.229,142.07   0,142.07 0,167.298 8.229,167.298 8.229,191.392 0,191.392 0,216.62 8.229,216.62 8.229,240.715 0,240.715 0,265.943 8.229,265.943   8.229,290.037 0,290.037 0,315.265 8.229,315.265 8.229,339.359 0,339.359 0,364.588 8.229,364.588 8.229,388.682 0,388.682   0,413.91 8.229,413.91 8.229,438.004 0,438.004 0,463.232 8.229,463.232 8.229,487.327 0,487.327 0,510.704 13.748,510.704   37.843,510.704 63.071,510.704 87.165,510.704 112.393,510.704 136.487,510.704 161.715,510.704 185.809,510.704 211.037,510.704   235.132,510.704 260.36,510.704 284.454,510.704 309.682,510.704 333.776,510.704 359.005,510.704 383.099,510.704 396.847,510.704   396.847,487.327 "
   id="polygon18" />
<polygon
   fill="#D3D3D3"
   stroke="#000000"
   stroke-width="0.5"
   points="810.442,487.894 810.442,462.666 802.213,462.666   802.213,438.571 810.442,438.571 810.442,413.343 802.213,413.343 802.213,389.249 810.442,389.249 810.442,364.021   802.213,364.021 802.213,339.927 810.442,339.927 810.442,314.698 802.213,314.698 802.213,290.604 810.442,290.604   810.442,265.376 802.213,265.376 802.213,241.282 810.442,241.282 810.442,216.054 802.213,216.054 802.213,191.959   810.442,191.959 810.442,166.731 802.213,166.731 802.213,142.637 810.442,142.637 810.442,117.409 802.213,117.409 802.213,93.315   810.442,93.315 810.442,68.086 802.213,68.086 802.213,37.047 421.807,37.047 421.807,68.086 413.578,68.086 413.578,93.315   421.807,93.315 421.807,117.409 413.578,117.409 413.578,142.637 421.807,142.637 421.807,166.731 413.578,166.731 413.578,191.959   421.807,191.959 421.807,216.054 413.578,216.054 413.578,241.282 421.807,241.282 421.807,265.376 413.578,265.376   413.578,290.604 421.807,290.604 421.807,314.698 413.578,314.698 413.578,339.927 421.807,339.927 421.807,364.021   413.578,364.021 413.578,389.249 421.807,389.249 421.807,413.343 413.578,413.343 413.578,438.571 421.807,438.571   421.807,462.666 413.578,462.666 413.578,487.894 421.807,487.894 421.807,510.704 802.213,510.704 802.213,487.894 "
   id="polygon20" />
<polygon
   fill="#D3D3D3"
   stroke="#000000"
   stroke-width="0.5"
   points="391.989,975.326 391.989,951.232 400.218,951.232   400.218,926.004 391.989,926.004 391.989,901.909 400.218,901.909 400.218,876.682 391.989,876.682 391.989,852.588   400.218,852.588 400.218,827.359 391.989,827.359 391.989,803.265 400.218,803.265 400.218,778.036 391.989,778.036   391.989,753.942 400.218,753.942 400.218,728.715 391.989,728.715 391.989,704.62 400.218,704.62 400.218,679.392 391.989,679.392   391.989,655.298 400.218,655.298 400.218,630.069 391.989,630.069 391.989,605.976 400.218,605.976 400.218,580.747   391.989,580.747 391.989,556.652 400.218,556.652 400.218,525.047 3.371,525.047 3.371,556.652 11.6,556.652 11.6,580.747   3.371,580.747 3.371,605.976 11.6,605.976 11.6,630.069 3.371,630.069 3.371,655.298 11.6,655.298 11.6,679.392 3.371,679.392   3.371,704.62 11.6,704.62 11.6,728.715 3.371,728.715 3.371,753.942 11.6,753.942 11.6,778.036 3.371,778.036 3.371,803.265   11.6,803.265 11.6,827.359 3.371,827.359 3.371,852.588 11.6,852.588 11.6,876.682 3.371,876.682 3.371,901.909 11.6,901.909   11.6,926.004 3.371,926.004 3.371,951.232 11.6,951.232 11.6,975.326 3.371,975.326 3.371,998.704 17.118,998.704 17.118,998.703   41.213,998.703 41.213,998.704 66.443,998.704 66.443,998.703 90.536,998.703 90.536,998.704 115.764,998.704 115.764,998.703   139.859,998.703 139.859,998.704 165.086,998.704 165.086,998.703 189.181,998.703 189.181,998.704 214.409,998.704   214.409,998.703 238.503,998.703 238.503,998.704 263.731,998.704 263.731,998.703 287.824,998.703 287.824,998.704   313.053,998.704 313.053,998.703 337.148,998.703 337.148,998.704 362.375,998.704 362.375,998.703 386.47,998.703 386.47,998.704   400.218,998.704 400.218,975.326 "
   id="polygon22" />
<polygon
   fill="#D3D3D3"
   stroke="#000000"
   stroke-width="0.5"
   points="802.213,975.894 810.442,975.894 810.442,950.666   802.213,950.666 802.213,926.571 810.442,926.571 810.442,901.344 802.213,901.344 802.213,877.25 810.442,877.25 810.442,852.021   802.213,852.021 802.213,827.926 810.442,827.926 810.442,802.698 802.213,802.698 802.213,778.604 810.442,778.604   810.442,753.377 802.213,753.377 802.213,729.282 810.442,729.282 810.442,704.053 802.213,704.053 802.213,679.959   810.442,679.959 810.442,654.731 802.213,654.731 802.213,630.637 810.442,630.637 810.442,605.409 802.213,605.409   802.213,581.314 810.442,581.314 810.442,556.086 802.213,556.086 802.213,525.047 421.807,525.047 421.807,556.086   413.578,556.086 413.578,581.314 421.807,581.314 421.807,605.409 413.578,605.409 413.578,630.637 421.807,630.637   421.807,654.731 413.578,654.731 413.578,679.959 421.807,679.959 421.807,704.053 413.578,704.053 413.578,729.282   421.807,729.282 421.807,753.377 413.578,753.377 413.578,778.604 421.807,778.604 421.807,802.698 413.578,802.698   413.578,827.926 421.807,827.926 421.807,852.021 413.578,852.021 413.578,877.25 421.807,877.25 421.807,901.344 413.578,901.344   413.578,926.571 421.807,926.571 421.807,950.666 413.578,950.666 413.578,975.894 421.807,975.894 421.807,998.704   802.213,998.704 "
   id="polygon24" />
</svg>